<?xml version="1.0" encoding="utf-8"?>
<!-- Generator: Adobe Illustrator 24.0.0, SVG Export Plug-In . SVG Version: 6.00 Build 0)  -->
<svg version="1.0" id="Layer_1" xmlns="http://www.w3.org/2000/svg" xmlns:xlink="http://www.w3.org/1999/xlink" x="0px" y="0px"
	 viewBox="0 0 774 1153" style="enable-background:new 0 0 774 1153;" xml:space="preserve">
<g>
	<g>
		<path d="M165.7,605.6c-43.9,11.8-79.9,11.9-108,0.4c-26.6-10.9-43.2-31.7-49.9-62.5c-0.6-2.9,1.3-6.5,4.3-8.1l67.5-35.6
			c3.2-1.7,6.4-0.6,7.2,2.4c3.2,12.2,8.1,21.4,14.6,27.5c7.5,7.1,16.7,11,27.8,11.9c11.1,0.9,23.2-0.4,36.3-4
			c19.9-5.3,34.6-12.8,44.1-22.4c9.5-9.6,14.3-19.5,14.3-30c0-10.4-4.5-17.2-13.6-20.5c-9.1-3.2-23.5-4-43.5-2.3l-19,1.7
			c-23.5,1.8-45.1,1.3-64.5-1.4c-19.5-2.7-35.1-9.5-46.9-20.4C24.9,431.6,19,415.1,19,392.9c0-33.5,12.2-62.5,36.7-86.9
			c24.4-24.4,56.6-42,96.4-52.7c37.6-10.1,68.8-10.1,93.7,0c23.1,9.4,38.8,25.2,47.1,47.5c1.1,2.9-0.7,6.7-3.9,8.6l-67.8,39
			c-3.1,1.8-6.5,0.9-7.4-2c-4-13.1-10.9-21.5-20.6-25.3c-11.1-4.3-24.8-4.2-41.1,0.1s-28.8,10.5-37.4,18.5
			c-8.6,8-12.9,16.9-12.9,26.9c0,10.9,4.5,17.7,13.6,20.5c9.1,2.8,21.3,3.5,36.7,2.1l19-1.7c25.4-2.3,48.3-2.4,68.9-0.5
			c20.6,2,36.9,8.2,48.9,18.8c12,10.6,18,27.7,18,51.2c0,35.3-12.8,66-38.4,92.1C243,575.2,208.7,594,165.7,605.6z"/>
		<path d="M487.3,519.4c-33.5,9-63.6,10.3-90.3,3.8c-26.7-6.4-47.8-20.5-63.2-42.2c-15.4-21.7-23.1-50.6-23.1-86.9v-10.9
			c0-36.2,7.7-69.3,23.1-99.2c15.4-29.9,36.4-55.3,63.2-76c26.7-20.7,56.8-35.6,90.3-44.6c33.5-9,63.6-10.3,90.3-3.8
			c26.7,6.4,47.8,20.5,63.2,42.2c15.4,21.7,23.1,50.6,23.1,86.9v10.9c0,36.2-7.7,69.3-23.1,99.2c-15.4,29.9-36.4,55.3-63.2,76
			C550.9,495.6,520.8,510.4,487.3,519.4z M487.3,443.3c26.3-7,48-21.3,65.2-42.9c17.2-21.6,25.8-48.2,25.8-79.9v-6.8
			c0-31.7-8.5-53.8-25.5-66.2c-17-12.4-38.8-15.1-65.5-7.9c-26.3,7-48,21.3-65.2,42.9c-17.2,21.6-25.8,48.2-25.8,79.9v6.8
			c0,31.7,8.6,53.7,25.8,66.1C439.3,447.7,461.1,450.4,487.3,443.3z"/>
		<path d="M672.6,454.3V26.9c0-3.3,2.6-6.6,5.9-7.5l73.7-19.8c3.3-0.9,5.9,1.1,5.9,4.3v427.5c0,3.3-2.6,6.6-5.9,7.5l-73.7,19.8
			C675.2,459.5,672.6,457.6,672.6,454.3z"/>
	</g>
	<g>
		<path d="M126.4,897.1c-34.2,9.2-62.2,9.3-84.1,0.3C22,889.1,9.1,873.3,3.8,849.9c-0.7-2.9,1.3-6.5,4.3-8.1l50.1-26.4
			c3.2-1.7,6.4-0.6,7.2,2.4c2.5,8.9,6.2,15.7,11.1,20.3c5.8,5.5,13,8.6,21.7,9.3c8.6,0.7,18.1-0.3,28.3-3.1
			c15.5-4.2,27-10,34.4-17.4c7.4-7.4,11.1-15.2,11.1-23.3c0-8.1-3.5-13.4-10.6-15.9c-7.1-2.5-18.3-3.1-33.8-1.8l-14.8,1.3
			c-18.3,1.4-35.1,1-50.2-1.1c-15.2-2.1-27.3-7.4-36.5-15.9c-9.2-8.5-13.7-21.3-13.7-38.6c0-26.1,9.5-48.6,28.6-67.7
			c19-19,44.1-32.7,75.1-41c29.3-7.8,53.6-7.8,73,0c17.6,7.1,29.6,19,36.2,35.8c1.1,2.8-0.7,6.8-3.9,8.6L171,696.2
			c-3.1,1.8-6.4,0.9-7.4-2c-3.1-9.6-8.4-15.8-15.7-18.6c-8.6-3.3-19.3-3.3-32,0.1c-12.7,3.4-22.4,8.2-29.1,14.4
			c-6.7,6.2-10,13.2-10,20.9c0,8.5,3.5,13.8,10.6,15.9c7,2.2,16.6,2.7,28.6,1.6l14.8-1.3c19.7-1.8,37.6-1.9,53.7-0.4
			c16,1.5,28.7,6.4,38.1,14.6c9.3,8.3,14,21.5,14,39.9c0,27.5-10,51.4-29.9,71.7C186.6,873.5,159.9,888.2,126.4,897.1z"/>
		<path d="M343.4,835.8c-20.4,5.5-38.3,5.6-53.7,0.4c-15.3-5.2-27.2-15-35.7-29.3c-8.5-14.3-12.7-32.2-12.7-53.7V602.6
			c0-3.3,2.6-6.6,5.9-7.5l54.8-14.7c3.3-0.9,5.9,1.1,5.9,4.3v145.3c0,19.7,4.8,33.3,14.5,40.5c9.7,7.3,23.5,8.5,41.5,3.7
			c20.4-5.5,36.3-16.5,47.6-33.1c11.3-16.6,16.9-37,16.9-61.4V552.5c0-3.3,2.6-6.6,5.9-7.5l54.8-14.7c3.3-0.9,5.9,1.1,5.9,4.3v231.7
			c0,3.3-2.6,6.6-5.9,7.5l-53.7,14.4c-3.3,0.9-5.9-1.1-5.9-4.3V780c0-3.3-2.6-5.2-5.9-4.3l-0.1,0c-2.1,0.6-4.1,2.2-5.1,4.3
			c-4.5,9-11.9,18.6-22.2,28.9C384.7,820.5,367,829.5,343.4,835.8z"/>
		<path d="M507.4,781.8V531.3c0-3.3,2.6-6.6,5.9-7.5l53.7-14.4c3.3-0.9,5.9,1.1,5.9,4.3v22.5c0,3.3,2.6,5.2,5.9,4.3h0
			c2.1-0.6,4.1-2.3,5.2-4.4c4.5-9.3,11.9-19,22.2-29.1c11.6-11.4,29.3-20.3,52.9-26.6c20.4-5.5,38.3-5.6,53.7-0.4
			c15.3,5.2,27.2,14.9,35.7,29c8.5,14.1,12.7,32.1,12.7,54v150.6c0,3.3-2.6,6.6-5.9,7.5l-54.8,14.7c-3.3,0.9-5.9-1.1-5.9-4.3V586.3
			c0-19.7-4.8-33.2-14.5-40.5c-9.7-7.3-23.5-8.5-41.5-3.7c-20.4,5.5-36.3,16.5-47.6,33.1c-11.3,16.6-16.9,37-16.9,61.4v127.3
			c0,3.3-2.6,6.6-5.9,7.5l-54.8,14.7C510,787,507.4,785,507.4,781.8z"/>
	</g>
	<g>
		<path d="M106.5,1146.2c-29.6,7.9-53.9,8-72.9,0.3c-17.4-7.1-28.5-20.6-33.3-40.5c-0.7-2.9,1.2-6.5,4.3-8.2l41.9-22.1
			c3.1-1.6,6.3-0.7,7.2,2.2c2.2,7.5,5.3,13.2,9.5,17c5,4.8,11.3,7.4,18.8,8c7.5,0.6,15.7-0.3,24.5-2.7c13.4-3.6,23.4-8.6,29.8-15.1
			c6.4-6.5,9.6-13.2,9.6-20.2c0-7-3.1-11.6-9.2-13.8c-6.1-2.2-15.9-2.7-29.3-1.5l-12.8,1.1c-15.9,1.2-30.4,0.9-43.6-0.9
			c-13.1-1.8-23.7-6.4-31.6-13.8c-8-7.3-11.9-18.5-11.9-33.5c0-22.6,8.3-42.2,24.8-58.7c16.5-16.5,38.2-28.3,65.1-35.6
			c25.4-6.8,46.5-6.8,63.3,0c15,6.1,25.4,16.2,31.1,30.3c1.2,2.8-0.6,6.8-3.8,8.6l-42,24.2c-3.1,1.8-6.4,0.9-7.4-1.9
			c-2.7-7.9-7.2-13.1-13.4-15.5c-7.5-2.9-16.7-2.9-27.7,0.1c-11,2.9-19.4,7.1-25.2,12.5c-5.8,5.4-8.7,11.4-8.7,18.2
			c0,7.3,3.1,11.9,9.2,13.8c6.1,1.9,14.4,2.3,24.8,1.4l12.8-1.1c17.1-1.5,32.6-1.6,46.5-0.3c13.9,1.3,24.9,5.6,33,12.7
			c8.1,7.2,12.1,18.7,12.1,34.6c0,23.8-8.6,44.6-25.9,62.2C158.7,1125.7,135.5,1138.4,106.5,1146.2z"/>
		<path d="M317.3,1089.7c-22.6,6.1-42.6,6.6-59.8,1.6c-17.3-5-30.7-15-40.3-30c-9.6-15-14.4-34.4-14.4-58.3v-5.5
			c0-23.8,4.7-45.8,14.2-65.9c9.5-20.1,22.8-37.3,39.9-51.5c17.1-14.2,37-24.3,59.6-30.4c22.3-6,41.7-6.2,58.2-0.7
			c16.5,5.5,29.3,15.8,38.5,30.9c9.2,15.1,13.8,34.3,13.8,57.5v13.8c0,3.3-2.6,6.6-5.9,7.5l-153.1,41c-3.6,1-6.4,4.9-5.9,8.4
			c1.8,12,7.4,20.9,16.8,26.7c11,6.8,24.4,8.1,40.3,3.9c16.2-4.3,28.1-11,35.8-20.1c6.1-7.3,11-14.7,14.8-22.3
			c1.6-3.2,5.1-5.1,8-4.4l36.4,9.3c3.1,0.8,4.1,4.4,2.3,7.8c-4,7.5-9.1,15.6-15.4,24.5c-8.1,11.5-18.9,22.3-32.3,32.5
			C355.2,1076.3,338,1084.2,317.3,1089.7z M269.2,956.4l92.1-24.7c3.7-1,6.6-5.2,5.8-8.6c-2.2-9.3-7.1-16.2-14.7-20.6
			c-9.3-5.4-21.5-6.2-36.4-2.2c-15.6,4.2-28,11.5-37.1,21.9c-7.4,8.3-12.4,17.8-15.3,28.2C262.4,954.5,265.3,957.4,269.2,956.4z"/>
		<path d="M508.6,1032.1c-15,4-27.1,2.6-36.4-4.2c-9.3-6.8-14-18-14-33.6V871.8c0-3.3-2.6-5.2-5.9-4.3l-45,12.1
			c-3.3,0.9-5.9-1.1-5.9-4.3v-35.9c0-3.3,2.6-6.6,5.9-7.5l45-12.1c3.3-0.9,5.9-4.2,5.9-7.5v-12.6c0-3.3,2.6-6.6,5.9-7.5l45.9-12.3
			c3.3-0.9,5.9,1.1,5.9,4.3v12.6c0,3.3,2.6,5.2,5.9,4.3l50.5-13.5c3.3-0.9,5.9,1.1,5.9,4.3v35.9c0,3.3-2.6,6.6-5.9,7.5l-50.5,13.5
			c-3.3,0.9-5.9,4.2-5.9,7.5v112.4c0,9.2,4.3,12.6,12.8,10.3l38.1-10.2c3.3-0.9,5.9,1.1,5.9,4.3v35.9c0,3.3-2.6,6.6-5.9,7.5
			L508.6,1032.1z"/>
		<path d="M679,992.8c-29.6,7.9-53.9,8-72.9,0.3c-17.4-7.1-28.5-20.6-33.3-40.5c-0.7-2.9,1.2-6.5,4.3-8.2l41.9-22.1
			c3.1-1.6,6.3-0.7,7.2,2.2c2.2,7.5,5.3,13.2,9.5,17c5,4.8,11.3,7.4,18.8,8c7.5,0.6,15.7-0.3,24.5-2.7c13.4-3.6,23.4-8.6,29.8-15.1
			c6.4-6.5,9.6-13.2,9.6-20.2c0-7-3.1-11.6-9.2-13.8c-6.1-2.2-15.9-2.7-29.3-1.5l-12.8,1.1c-15.9,1.2-30.4,0.9-43.6-0.9
			c-13.1-1.8-23.7-6.4-31.6-13.8c-8-7.3-11.9-18.5-11.9-33.5c0-22.6,8.3-42.2,24.8-58.7c16.5-16.5,38.2-28.3,65.1-35.6
			c25.4-6.8,46.5-6.8,63.3,0c15,6.1,25.4,16.2,31.1,30.3c1.2,2.8-0.6,6.8-3.8,8.6l-42,24.2c-3.1,1.8-6.4,0.9-7.4-1.9
			c-2.7-7.9-7.2-13.1-13.4-15.5c-7.5-2.9-16.7-2.9-27.7,0.1s-19.4,7.1-25.2,12.5c-5.8,5.4-8.7,11.4-8.7,18.2
			c0,7.3,3.1,11.9,9.2,13.8c6.1,1.9,14.4,2.3,24.8,1.4l12.8-1.1c17.1-1.5,32.6-1.6,46.5-0.3c13.9,1.3,24.9,5.6,33,12.7
			c8.1,7.2,12.1,18.7,12.1,34.6c0,23.8-8.6,44.6-25.9,62.2C731.2,972.3,708.1,985,679,992.8z"/>
	</g>
</g>
</svg>
