<?xml version="1.0" encoding="utf-8"?>
<!-- Generator: Adobe Illustrator 24.0.0, SVG Export Plug-In . SVG Version: 6.00 Build 0)  -->
<svg version="1.1" id="Layer_1" xmlns="http://www.w3.org/2000/svg" xmlns:xlink="http://www.w3.org/1999/xlink" x="0px" y="0px"
	 viewBox="0 0 53.7 33" style="enable-background:new 0 0 53.7 33;" xml:space="preserve">
<style type="text/css">
	.st0{fill:#336666;}
</style>
<path class="st0" d="M26.9,26.7c0,3.3,2.5,6,5.5,6h18.2c1.7,0,3.1-1.5,3.1-3.4s-1.4-3.4-3.1-3.4H37.3c-0.1,0-0.2-0.1-0.2-0.2
	c0,0,0-0.1,0.1-0.1l6-5.6c1-0.9,1.5-2.2,1.5-3.6s-0.6-2.7-1.5-3.6l-6-5.6l-0.1-0.1c0-0.1,0.1-0.2,0.2-0.2h13.2
	c1.7,0,3.1-1.5,3.1-3.4s-1.4-3.4-3.1-3.4L26.9,0v8.7l7.7,7.3c0.1,0.1,0.1,0.2,0.1,0.3c0,0.1,0,0.2-0.1,0.3l-5.8,5.5
	C27.5,23.3,26.9,24.9,26.9,26.7z"/>
<path class="st0" d="M5.2,0C2.3,0,0,2.6,0,5.7v23.2c0,2.1,1.5,3.8,3.5,3.8S7,31,7,28.9V12.7c0-0.1,0.1-0.2,0.1-0.2
	c0.1,0,0.1,0,0.1,0.1l6.2,17.6c0.5,1.4,1.7,2.3,3,2.3s2.5-0.9,3-2.3l6.3-17.6l1.2-3.9V0c-1.7,0-3.2,1.1-3.9,2.9l-6.3,17.2
	c0,0.1-0.1,0.2-0.2,0.2s-0.2-0.1-0.2-0.2L10.1,3.6C9.3,1.4,7.4,0,5.2,0z"/>
</svg>
