<?xml version="1.0" encoding="utf-8"?>
<!-- Generator: Adobe Illustrator 24.0.0, SVG Export Plug-In . SVG Version: 6.00 Build 0)  -->
<svg version="1.1" id="Capa_1" xmlns="http://www.w3.org/2000/svg" xmlns:xlink="http://www.w3.org/1999/xlink" x="0px" y="0px"
	 viewBox="0 0 543.7 543.7" style="enable-background:new 0 0 543.7 543.7;" xml:space="preserve">
<style type="text/css">
	.st0{fill:#336666;}
</style>
<g>
	<g>
		<path class="st0" d="M527.7,106.7c-2.7,0.8-5.4,1.5-8,2.2c-16.4,4.1-17.9-1.3-6-13.4c5.3-5.4,10-11.3,14.1-17.6
			c9.1-14.2,1.2-20.4-14.3-13.8c-5.5,2.4-11.2,4.5-16.9,6.4c-16,5.4-38.7-2.7-53-11.8c-18-11.4-38.5-17.1-61.4-17.1
			c-32.1,0-59.5,11.3-82.2,34c-22.7,22.7-34,50.1-34,82.2c0,4.4,0.3,8.9,0.7,13.4c0.8,7.4-11.6,12.7-28.3,10.3
			c-36.2-5.1-70.6-16.1-103.2-32.9C102.7,132,74.2,111,49.5,85.7c-11.8-12.1-27.8-11-32.2,5.3c-2.6,9.8-4,20-4,30.5
			c0,19.9,4.7,38.4,14,55.4c4.7,8.5,10.1,16.1,16.4,23c10.5,11.5,8.9,18.3-5.7,14.1c-14.6-4.1-25.4-10.2-25.4-9.8s0,0.7,0,0.7
			c0,28,8.8,52.7,26.4,73.9c10.9,13.1,23.5,23.2,37.8,30.3c15.1,7.5,22.2,11.7,13.7,12.8c-5.1,0.7-10.3,1-15.4,1
			c-3.5,0-7.2-0.2-11-0.5c-6.1-0.5-7.1,12.1,2,26.3c7.3,11.3,16.6,21.2,28,29.8c11.6,8.7,24.1,15,37.4,18.8
			c16.3,4.6,19.5,13.1,5,21.8c-35.9,21.5-75.6,32.3-119.1,32.3c-4.9,0-9.6-0.1-14-0.3c-7.8-0.4-2.6,6.5,12.4,14.3
			c46.8,24.5,97.4,36.7,152,36.7c41.2,0,80-6.5,116.2-19.6c36.2-13.1,67.1-30.6,92.8-52.5c25.7-21.9,47.8-47.2,66.4-75.7
			c18.6-28.5,32.4-58.3,41.5-89.4c9.1-31.1,13.7-62.2,13.7-93.3c0-2.8,0-5.3-0.1-7.6c-0.1-4.2,11-15.5,23.3-27
			c5.6-5.2,10.9-10.7,15.9-16.4C548.8,107.8,543.9,102,527.7,106.7z"/>
	</g>
</g>
</svg>
