<?xml version="1.0" encoding="utf-8"?>
<!-- Generator: Adobe Illustrator 24.0.0, SVG Export Plug-In . SVG Version: 6.00 Build 0)  -->
<svg version="1.0" id="Layer_1" xmlns="http://www.w3.org/2000/svg" xmlns:xlink="http://www.w3.org/1999/xlink" x="0px" y="0px"
	 viewBox="0 0 37 24" style="enable-background:new 0 0 37 24;" xml:space="preserve">
<style type="text/css">
	.st0{fill-rule:evenodd;clip-rule:evenodd;}
</style>
<path class="st0" d="M18,16.7c0.2,0.3,0.1,0.6,0,0.8L14.2,23c-0.3,0.5-1,0.4-1.3-0.1L0.1,1.2C-0.2,0.7,0.2,0,0.8,0h6.8
	c0.3,0,0.5,0.1,0.7,0.4L18,16.7z M36.2,22.8c0.3,0.5-0.1,1.2-0.7,1.2h-6.8c-0.3,0-0.5-0.1-0.7-0.4L15,1.2C14.7,0.7,15,0,15.6,0h6.8
	c0.3,0,0.5,0.1,0.7,0.4L36.2,22.8z M5.5,23.8c0.6,0,1-0.7,0.7-1.2l-4.7-7.9C1.1,14,0,14.3,0,15.1V23c0,0.4,0.3,0.8,0.8,0.8H5.5z"/>
</svg>
