<?xml version="1.0" encoding="utf-8"?>
<!-- Generator: Adobe Illustrator 24.0.0, SVG Export Plug-In . SVG Version: 6.00 Build 0)  -->
<svg version="1.0" id="Layer_1" xmlns="http://www.w3.org/2000/svg" xmlns:xlink="http://www.w3.org/1999/xlink" x="0px" y="0px"
	 viewBox="0 0 210 24" style="enable-background:new 0 0 210 24;" xml:space="preserve">
<path d="M0,24h3.9V8.1L13.1,24h3.4l9.2-15.9V24h3.9V0h-3.9L14.8,18.9L3.9,0H0V24z"/>
<path d="M38.7,24h15.2v-3.9H42.6V14h11.3v-4H42.6V3.9h11.3V0H38.7V24z"/>
<path d="M69,24h4V3.9h9.1V0H59.9v3.9H69V24z"/>
<path d="M105.6,24h4.3L98.7,0h-3.8L83.7,24H88l1.9-4.2h13.8L105.6,24z M91.7,15.9l5-10.8l5,10.8H91.7z"/>
<path d="M116.8,24h3.9v-7.5h5.1c4.8,0,8.3-3.5,8.3-8.2s-3.5-8.2-8.3-8.2h-9V24z M120.7,12.5V3.9h5.1c2.6,0,4.4,1.8,4.4,4.3
	s-1.8,4.3-4.4,4.3C125.8,12.5,120.7,12.5,120.7,12.5z"/>
<path d="M141.6,24H157v-3.9h-11.5V0h-3.9V24z"/>
<path d="M164,24h15.2v-3.9h-11.3V14h11.3v-4h-11.3V3.9h11.3V0H164V24z"/>
<path d="M185.4,24h5.1l7.3-8.9L205,24h5.1l-9.8-12L210,0h-5l-7.3,8.9L190.4,0h-5.1l9.8,12L185.4,24z"/>
</svg>
